/* XPM */
static char *result[] = {
/* columns rows colors chars-per-pixel */
"64 64 179 2 ",
"   c #B16843",
".  c #B16943",
"X  c #B26843",
"o  c #B26844",
"O  c #B26944",
"+  c #B36944",
"@  c #B26945",
"#  c #B36945",
"$  c #B26A44",
"%  c #B36A44",
"&  c #B26A45",
"*  c #B36A45",
"=  c #B26B45",
"-  c #B36B45",
";  c #B26A46",
":  c #B36A46",
">  c #B26B46",
",  c #B36B46",
"<  c #B36B47",
"1  c #B46A45",
"2  c #B46B45",
"3  c #B46A46",
"4  c #B46B46",
"5  c #B56B46",
"6  c #B46B47",
"7  c #B66B46",
"8  c #B26C46",
"9  c #B36C46",
"0  c #B36D46",
"q  c #B36C47",
"w  c #B56C45",
"e  c #B46C46",
"r  c #B56C46",
"t  c #B56D46",
"y  c #B46C47",
"u  c #B56C47",
"i  c #B46D47",
"p  c #B56D47",
"a  c #B66C46",
"s  c #B46E47",
"d  c #B56E47",
"f  c #B66E47",
"g  c #B46D48",
"h  c #B56D48",
"j  c #B46E48",
"k  c #B56E48",
"l  c #B56F48",
"z  c #B56E49",
"x  c #B56F49",
"c  c #B66E48",
"v  c #B66F48",
"b  c #B76F48",
"n  c #B66F49",
"m  c #B57049",
"M  c #B67048",
"N  c #B67049",
"B  c #B77049",
"V  c #B67149",
"C  c #B5704A",
"Z  c #B6704A",
"A  c #B7704A",
"S  c #B6714A",
"D  c #B7714A",
"F  c #B7724A",
"G  c #B7724B",
"H  c #B7734B",
"J  c #B7744B",
"K  c #B7724C",
"L  c #B7734C",
"P  c #B8714A",
"I  c #B8714B",
"U  c #B8724A",
"Y  c #B8724B",
"T  c #B9724B",
"R  c #B8734B",
"E  c #B9734B",
"W  c #B8744B",
"Q  c #B9724C",
"!  c #B8734C",
"~  c #B9734C",
"^  c #B8744C",
"/  c #B9744C",
"(  c #B8754C",
")  c #B9754C",
"_  c #B8744D",
"`  c #B9744D",
"'  c #B8754D",
"]  c #B9754D",
"[  c #BA744C",
"{  c #BA754C",
"}  c #BA744D",
"|  c #BA754D",
" . c #B9764C",
".. c #B9764D",
"X. c #BA764D",
"o. c #BA774D",
"O. c #BA754E",
"+. c #B9764E",
"@. c #BA764E",
"#. c #BB764E",
"$. c #BA774E",
"%. c #BB774E",
"&. c #BA764F",
"*. c #BA774F",
"=. c #BB774F",
"-. c #BC774F",
";. c #BA784E",
":. c #BB784E",
">. c #BA784F",
",. c #BB784F",
"<. c #BB794F",
"1. c #BB7A4F",
"2. c #BC784F",
"3. c #BC794F",
"4. c #BB7850",
"5. c #BB7950",
"6. c #BB7A50",
"7. c #BC7950",
"8. c #BD7950",
"9. c #BC7A50",
"0. c #BD7B50",
"q. c #BC7A51",
"w. c #BD7A51",
"e. c #BC7B51",
"r. c #BD7B51",
"t. c #BD7B52",
"y. c #BD7C51",
"u. c #BE7D51",
"i. c #BD7C52",
"p. c #BD7D52",
"a. c #BD7C53",
"s. c #BD7D53",
"d. c #BE7C52",
"f. c #BE7D52",
"g. c #BE7C53",
"h. c #BE7D53",
"j. c #BF7D53",
"k. c #BE7E52",
"l. c #BE7E53",
"z. c #BF7E53",
"x. c #BE7F53",
"c. c #BF7F53",
"v. c #BE7C54",
"b. c #BE7D54",
"n. c #BF7D54",
"m. c #BF7E54",
"M. c #BE7F54",
"N. c #BF7F54",
"B. c #BE7E55",
"V. c #BE7F55",
"C. c #BF7F55",
"Z. c #BF7F56",
"A. c #BF7F57",
"S. c #C07F54",
"D. c #C07F55",
"F. c #C07F56",
"G. c #BF8054",
"H. c #BF8055",
"J. c #BF8056",
"K. c #BF8156",
"L. c #BF8257",
"P. c #C08055",
"I. c #C18055",
"U. c #C08155",
"Y. c #C18155",
"T. c #C28055",
"R. c #C08056",
"E. c #C18056",
"W. c #C08156",
"Q. c #C18156",
"!. c #C08057",
"~. c #C08157",
"^. c #C18157",
"/. c #C28156",
"(. c #C28157",
"). c #C18256",
"_. c #C08257",
"`. c #C18257",
"'. c #C28257",
/* pixels */
"i.p.P.Q.P.Q.P.Q.P.P.P.P.P.P.P.P.P.P.Q.f.R n N N N N n D r.I.U.P.Q.P.Q.P.P.P.P.P.P.P.P.P.P.P.Q.P.5.N v N N N n n W z.Q.P.P.Q.'.Q.",
"e.i.P.Q.P.Q.Q.P.Q.Q.Q.Q.Q.Q.Q.Q.Q.P.Q.i.k * * * * * * y 8.I.R.P.Q.Q.P.Q.Q.Q.Q.Q.Q.Q.Q.Q.Q.P.Q.P.@.4 * * * * * * A h.Q.P.P.Q.'.Q.",
"e.i.P.Q.P.Q.P.Q.P.P.D.D.D.D.P.P.P.P.Q.i.v * * * * * * y 8.I.W.P.Q.P.Q.P.P.D.D.D.D.D.P.P.P.I.Q.P.X.2 * * * * * * Z h.Q.P.P.Q.'.Q.",
"l.l.P.Q.P.Q.P.Q.P.i.X.[ | |  .=.m.Q.Q.z.%.[ | } } | ` @.h.E.P.P.P.P.Q.S.<.] | | | | 9.N.P.Q.Q.P.r.| [ | } } | / =.m.U.E.P.Q.'.Q.",
"~.P.P.Q.P.Q.P.Q.P.7.p 3 4 - - V i.Q.P.P.P.D.D.D.D.D.D.D.P.Q.Q.Q.Q.Y.Q.S.R - , 4 - 4 | N.P.I.R.I.P.D.D.D.D.D.D.D.P.P.P.Q.P.Q.'.Q.",
"^.E.Q.Q.Q.Q.P.Q.P.3.u 1 * % * N s.Q.P.Q.Q.Q.Q.Q.Q.Q.Q.Q.Q.P.P.U.U.U.U.m.R * * 3 * - ) M.U.I.P.Q.Q.Q.Q.Q.Q.Q.Q.Q.Q.Q.Q.Q.P.Q.'.Q.",
"~.P.P.P.P.P.P.Q.P.r./ R R R R @.z.Q.P.P.P.P.P.P.P.P.P.P.U.N.q.,.,.=.,.$./ Y R R R R <.N.U.E.U.P.P.P.P.P.P.P.P.P.P.P.P.P.P.Q.'.Q.",
"^.I.Q.Q.Q.Q.P.Q.P.P.C.C.D.D.C.D.P.P.Q.P.Q.Q.Q.Q.Q.Q.P.P.Q.l.U 4 e u 4 e @.N.N.N.D.D.D.P.Y.W.P.Q.Q.Q.Q.Q.Q.Q.Q.Q.Q.Q.Q.Q.Q.Q.'.Q.",
"(.T./.'.'.Q.P.Q.Q.Q.Q.Q.Q.Q.Q.Q.Q.Q.Q.P.Q.Q.Q.Q.Q.Q.P.I.W.l.D * * - * - @.P.Q.Q.Q.Q.Q.Q.R.Q.P.Q.Q.Q.Q.Q.Q.Q.Q.Q.'.'.'.'.'.'.Q.'.",
"^.I.Q.`.'.Q.P.P.I.P.P.P.P.P.P.P.P.P.P.Q.P.P.P.P.P.P.W.P.W.z.] n N Z N Z 2.P.P.P.P.P.P.P.P.P.Q.P.P.P.P.P.P.P.P.Q.'.Q.Q.Q.Q.Q.Q.Q.",
"(.T./.'.'.Q.Q.Q.W.Q.P.W.W.P.P.P.P.P.P.P.P.P.P.P.Q.Q.P.P.Q.P.z.h.h.h.h.h.S.R.U.E.P.P.P.P.P.P.P.P.P.P.P.Q.Q.Q.P.Q.'.'.'.'.'.'.'.'.",
"^.I.Q.Q.Q.Q.Q.Q.W.Q.I.Q.I.Q.Q.Q.Q.Q.Q.Q.Q.Q.Q.Q.Y.P.Q.Y.P.Q.Q.Q.Q.Q.Q.Q.Q.Q.Q.P.Q.Q.Q.Q.Q.Q.Q.Q.Q.Q.Q.P.P.Q.P.Q.Q.Q.Q.Q.Q.Q.Q.Q.",
"~.P.P.P.P.P.P.P.P.I.P.W.P.m.g.i.i.i.i.i.d.a.i.p.N.U.E.P.Q.P.P.P.P.P.P.P.P.P.Q.P.z.i.d.i.i.i.i.i.i.i.h.N.P.Q.P.P.P.P.P.P.P.P.P.Q.",
"^.P.P.P.P.P.P.Q.W.Q.P.K.H.q.D v n n n v n l d V i.U.P.P.P.P.P.P.P.P.R.P.P.P.Q.S.$.N n n n n v n v x ] z.Y.R.P.Q.P.P.P.P.P.P.Q.P.",
"^.Q.Q.Q.Q.Q.Q.Q.P.Q.P.K.H.<.y # * # * * * O   , w.E.U.Q.Q.Q.Q.Q.Q.W.I.Q.Q.P.Q.S./ * + # * * * * * * G l.Y.R.P.I.Q.Q.Q.Q.Q.Q.R.Q.",
"W.P.S.S.S.D.P.P.Q.I.P.K.H.6.p 1 - 1 1 3 * $ . q w.E.P.P.S.S.S.N.P.I.W.P.Q.P.Q.S.] 4 2 2 2 - 4 4 1 * G l.Y.R.P.W.P.S.S.S.S.P.U.E.",
"F.7./ ~ / ,.m.P.I.I.P.J.H.i.$.| ] Y r * 2 2 - x t.Q.P.z.$.E / ` r.P.Q.P.P.P.Q.D.9.| X.| B 4 4 4 1 2 G l.U.I.P.I.d.] ! ~ @.j.Y.P.",
"C.' , * - F l.Q.Q.Q.W.W.P.P.P.N.m.9.v 5 w r p Z i.Q.Q.h.N * * u -.P.Q.W.Q.Q.Q.P.P.P.W.N.| t r r w r R l.W.I.W.I.8.u 1 1 M i.Q.Q.",
"C.' , * * D l.W.W.W.W.W.W.U.P.P.N.9.b a a 7 u N i.Q.).h.n * * r -.P.P.P.P.W.W.Q.W.W.W.P.| r a a r r T l.W.I.R.I.8.u 1 1 l d.W.W.",
"D.5.^ Q ! ) %.$.@.@.$.$.@.5.m.P.N.i.X.[ | [ { $.l.Q.U.z.@.! ! ` t.D.N.l.9.$.@.+.@.@.+.+.] ` ` { [ [ ,.m.Y.R.P.I.d.] ! ! ` 5.5.@.",
"W.P.D.D.N.3.v 2 @ O * 4 3 S h.P.P.P.D.D.D.D.D.P.P.E.P.P.D.C.S.D.D.N.N.l.R 2 % $ % - > > ' m.D.D.D.D.P.P.P.Q.I.W.P.D.D.S.i.' V - ",
"^.Q.P.P.U.3.f 2 O X * * * D h.Q.Q.Q.Q.Q.Q.Q.Q.Q.Q.U.Q.Q.Q.Q.Q.Q.P.N.N.l.R % O O @ * & > ( S.Q.Q.Q.Q.Q.Q.Q.P.Q.I.Q.Q.Q.Q.h...V * ",
"~.E.P.N.l.%.p - O O * 2 , D l.Q.P.P.P.P.P.P.P.P.P.P.P.P.P.P.P.P.P.N.q.$.M * @ @ & , ; 8 ) S.Q.P.P.P.P.P.P.P.P.P.P.P.P.E.d.H j * ",
"~.E.P.z.f.X.e * * * * 4 , D l.Q.P.P.Q.E.P.P.P.P.P.P.P.E.E.P.P.P.Q.l.Y 4 - * * * * , : , ) S.Q.P.P.P.P.P.P.P.P.Q.Q.P.P.E.r.d : * ",
"~.E.P.z.u.{ e * * * * * : D l.Q.P.I.P.U.Q.Q.Q.Q.Q.Q.Q.U.U.Q.P.P.Q.l.D # * * * * * * * * / S.Q.P.Q.Q.Q.Q.Q.Q.Q.P.P.Q.P.E.r.i * * ",
"~.E.P.z.f.%.v d d d d d h ! l.Q.P.I.U.N.f.i.i.i.r.i.N.G.P.P.Q.P.Q.l.^ c d d d d d k d c $.S.Q.P.m.i.i.i.i.i.d.N.P.Q.P.Q.i.N d k ",
"~.E.P.N.N.j.i.i.i.i.i.i.r.d.N.W.I.P.Q.f.^ N x l d N 9.N.N.P.Q.Q.P.N.d.i.i.i.i.i.i.i.i.i.l.P.Q.P.<.D n k d h ^ l.R.I.P.Q.N.i.t.i.",
"^.I.P.P.Q.Q.Q.Q.Q.Q.Q.Q.Q.Q.P.P.Q.P.Q.d.D 9 & * # e <.C.P.U.Q.E.P.P.Q.Q.Q.Q.Q.Q.Q.Q.Q.Q.Q.P.Q.P.$.p : @ * * F l.Q.U.Q.P.U.Q.Q.Q.",
"m.z.P.W.I.P.P.I.P.N.l.h.h.z.N.P.P.P.Q.f.! k i i e k >.h.h.h.N.P.Q.Q.I.S.z.h.h.l.h.h.z.N.P.Q.Q.P.,.v p y y y G i.z.h.l.N.P.E.P.P.",
"S o.N.W.I.P.P.Q.P.r.Y A A ) f.N.N.P.Q.N.r.5.5.,.@.] _ K N D 7.P.Q.P.I.N.$.Z A D A I ,.c.P.E.W.I.h.q.7.>.@.) W U P N ^ f.P.Q.P.P.",
"@ F M.W.I.W.P.E.P.,.y * * n y.N.N.P.Q.P.P.H.N.z.g.5.I h O - %.P.Q.P.Q.N.H * * : * 4 ] N.U.I.P.W.E.P.C.m.s.9.W e 1 O l i.P.E.P.Q.",
": H M.W.I.W.P.Q.P.5.p : , N y.N.N.P.Q.Q.P.N.x.l.i.4.I h * - %.P.Q.P.Q.N.R , , 6 , e ] N.U.I.U.P.Q.P.D.n.i.9./ t 2 O m i.P.Q.P.Q.",
"&.7.C.W.I.W.P.Q.P.i.%.X...,.h.N.P.P.E.Q.P.N.N.N.h.d.7.=.X.@.t.P.Q.P.Q.D.7.X.X.@.] X.r.G.U.E.P.P.Q.P.N.m.m.h.e.%.X.] ,.z.P.Q.P.Q.",
"~.U.P.W.Q.P.P.Q.P.P.U.U.I.E.P.P.P.Q.P.Q.R.P.P.P.P.P.P.P.P.P.P.P.Q.Q.Q.P.P.P.P.U.P.I.P.P.U.Q.Q.Q.E.W.P.P.P.P.P.P.P.I.R.P.P.Q.P.P.",
"^.U.W.P.I.W.I.P.Q.Q.W.W.Q.W.W.W.W.U.P.P.R.Q.Q.Q.Q.Q.Q.Q.P.P.P.W.W.W.W.W.Q.Q.Q.E.Q.Q.U.W.W.W.P.P.U.E.Q.Q.Q.P.P.P.Y.Q.W.W.U.U.E.Q.",
"5.,.,.r.P.Q.P.Q.P.Q.P.h.,.:.,.,.,.7.h.N.P.P.Q.P.P.P.P.E.P.m.e.,.,.,.,.,.f.I.Q.P.t.,.:.,.,.,.r.G.U.E.P.P.Q.P.N.N.d.,.:.,.7.N.Q.P.",
"p e 4 / S.Q.P.Q.P.Q.P.7.d e u r 4 B e.N.N.P.Q.P.Q.Q.P.I.W.l.F e r u e e $.P.Q.N.] e e u e r ^ c.U.E.U.P.Q.P.G.N.5.d 4 4 N i.Q.P.",
"< * & R D.Q.P.Q.P.Q.P.3.e * * * * c q.N.N.P.Q.P.Q.Q.P.I.W.l.D * * * # - @.P.Q.S./ * * * * * Y l.U.E.P.P.Q.P.N.N.<.e # * n i.Q.P.",
"S l k X.D.Q.P.Q.P.Q.P.e.N l x x z Y r.N.N.P.Q.P.P.P.Q.P.Q.z.) x x x l n <.P.Q.N.@.n x x x n | l.P.Q.P.P.Q.P.N.N.q.A l z G p.Q.P.",
"b.i.i.j.P.Q.P.Q.P.Q.P.c.i.i.i.i.i.p.N.N.P.P.P.P.Q.Q.P.Q.P.N.h.i.i.i.i.i.m.P.Q.P.j.i.i.i.i.i.h.N.P.P.P.Q.Q.P.N.C.m.i.i.i.p.N.P.Q.",
"^.Q.Q.Q.P.Q.P.Q.Y.R.Y.U.Q.Q.Q.Q.Q.Q.Q.Q.Q.Q.Q.Q.P.P.Y.Q.P.P.Q.Q.Q.Q.Q.Q.Q.P.R.Y.Q.Q.Q.Q.Q.Q.Q.Q.Q.Q.Q.P.P.P.P.P.Q.Q.Q.Q.Q.P.P.Q.",
"~.P.P.P.Q.Q.Q.Q.W.Q.R.W.H.m.h.g.g.h.h.h.h.h.h.h.N.P.Q.P.Q.Q.P.P.P.P.P.P.P.P.Q.P.z.i.g.h.g.g.h.h.g.g.j.N.P.Q.Q.Q.I.P.P.P.P.Q.Q.P.",
"~.P.P.P.P.P.P.P.P.I.P.K.H.q.D N Z N Z Z Z Z N Y i.E.U.I.P.P.P.P.P.P.P.P.Q.P.Q.S.$.N n Z N N N Z N n ] z.Q.P.P.P.P.P.P.P.P.P.P.Q.",
"^.I.Q.Q.Q.Q.Q.Q.W.Q.P.K.H.<.e * - * * * * * # y r.E.P.P.Q.Q.Q.Q.Q.Q.Q.Q.P.P.Q.S.^ & & = * * * - * * F l.Y.R.P.Q.Q.Q.Q.Q.Q.Q.Q.Q.",
"(.I.Q.Q.Q.Q.Q.Q.W.Q.P.K.H.6.d 4 r r r r r r 3 k r.E.P.P.Q.Q.Q.Q.Q.Q.Q.Q.P.P.Q.S.] 9 , e e r e r 5 e H l.Y.R.P.Q.Q.Q.Q.Q.Q.Q.Q.Q.",
"(.I.W.W.P.P.P.P.P.I.P.J.H.p.=.#.%.%.%.%.%.%.#.2.z.Q.I.P.Q.Q.P.P.P.P.P.P.P.P.Q.P.r.$.@.@.%.%.%.%.%.%.9.N.P.Q.P.Q.Q.P.P.P.P.P.P.P.",
"(.I.P.I.Q.Q.Q.Q.Q.Q.W.W.P.P.P.P.P.P.P.P.P.P.P.P.P.P.Q.P.Q.Q.P.Q.Q.Q.Q.Q.Q.Q.Q.U.P.E.Q.R.P.P.P.P.P.P.P.P.P.Q.P.Q.Q.P.Q.Q.Q.Q.Q.Q.",
"(.I.W.Q.P.P.P.P.P.P.P.P.P.P.P.Y.Q.Q.Q.Q.Q.Q.Q.Q.Q.Q.Q.P.Q.Q.P.Q.P.P.P.P.P.P.P.P.P.P.I.P.P.P.Q.Q.Q.Q.Q.Q.Q.Q.P.Q.Q.P.Q.P.P.P.P.P.",
"(.I.R.Q.P.t.X.} | | | | ) ,.m.Q.P.P.P.P.P.P.P.P.P.P.P.P.Q.Q.P.I.Q.N.9.X.X.| | | } ` / | 9.P.Q.P.P.P.P.P.P.P.P.Q.Q.P.P.Q.h.@.` | ",
"(.I.P.Y.P.>.e * 1 1 1 * * Z h.Q.P.P.Q.Q.Q.Q.Q.Q.Q.Q.Q.Q.Q.Q.P.P.Q.l.J 0 - * 1 1 1 1 * , ] S.Q.P.P.Q.Q.Q.Q.Q.Q.Q.Q.P.P.E.r.p * 4 ",
"^.I.P.Q.P.;.4 * * * * * * A h.Q.P.P.Q.Q.Q.Q.Q.Q.Q.Q.Q.Q.Q.Q.P.P.Q.l.L 9 * * * * * * * - ) S.Q.P.P.Q.Q.Q.Q.Q.Q.Q.Q.P.P.E.r.y @ : ",
"~.P.P.Q.P.9.H D F F F D D | z.Q.P.Q.P.P.P.P.P.P.P.P.P.P.P.P.P.P.Q.m.$.H F F F F F F D D ,.D.Q.P.Q.P.P.P.P.P.P.P.P.P.P.E.g.^ D F ",
"~.P.W.Q.P.N.l.x.x.x.x.l.l.z.P.Q.P.P.Q.Q.P.P.P.P.P.P.P.P.P.P.P.Q.I.S.m.l.l.x.x.x.x.x.l.l.m.P.Q.P.P.P.P.P.P.P.P.P.P.P.P.Q.P.x.x.x.",
"^.Y.I.E.P.P.U.U.U.U.U.U.U.P.P.Q.P.Q.P.W.Q.Q.Q.Q.Q.Q.Q.Q.Q.Q.Q.W.I.P.R.P.U.U.U.U.U.U.U.U.P.I.W.P.Q.Q.Q.Q.Q.Q.Q.Q.Q.Q.Q.R.U.U.U.U.",
"v.h.S.P.Q.Q.E.E.E.E.E.E.E.Q.Q.Q.P.I.W.N.i.i.i.i.i.i.i.i.i.i.z.P.Q.Q.Y.Q.E.E.E.E.E.E.E.E.Q.W.E.U.m.i.i.i.i.i.i.i.i.N.N.N.P.E.P.E.",
"C ..x.U.E.P.P.P.P.P.P.P.P.P.P.P.Q.P.Q.p.F k z z z z z k s v <.P.Q.P.P.P.P.P.P.P.P.P.P.P.P.P.Q.P.,.v k z z z k k Y r.h.N.P.Q.P.P.",
"> R N.U.I.P.Q.Q.Q.Q.Q.Q.Q.Q.Q.Q.P.P.Q.i.c * * * * * * O o * $.P.Q.P.Q.Q.Q.Q.Q.Q.Q.Q.Q.Q.Q.P.Q.P.O.* # * * * * # v 9.l.N.P.Q.P.Q.",
"g ^ M.W.I.P.Q.Q.Q.Q.Q.Q.Q.Q.Q.Q.P.P.Q.i.N e u p y p e , : y ,.P.Q.P.Q.Q.Q.Q.Q.Q.Q.Q.Q.Q.Q.P.Q.P.*.y e p y p u y A 0.k.N.P.Q.P.Q.",
"7.t.H.W.I.U.R.R.P.P.P.P.P.P.P.P.R.P.Q.N.9.,.<.1.1.1.<.4.>.5.h.P.I.P.P.P.P.P.P.P.P.P.P.P.P.P.W.I.f.5.<.1.1.1.<.,.q.z.N.N.P.Q.P.Q.",
"~.R.Y.Q.Q.P.Q.Q.Y.Q.Q.Q.Q.Q.Q.Q.Y.Q.P.U.U.U.U.U.U.U.U.U.U.U.Q.Q.Q.Q.Q.Q.Q.Q.Q.Q.Q.Q.Q.Q.Q.Y.P.Q.I.U.U.U.U.U.U.U.P.Q.Q.I.I.Q.I.W.",
"~.R.P.R.R.Y.R.Q.P.Q.P.P.P.P.P.P.R.P.Q.E.Q.Q.Q.Q.E.Q.Q.Q.U.P.P.P.D.P.P.P.P.I.Q.P.P.P.P.P.P.R.Y.P.W.Q.Q.Q.Q.Q.Q.Q.Q.W.W.W.W.W.P.Q.",
"~.C.C.C.P.Y.R.Q.P.Q.P.N.l.m.N.C.Z.P.Y.P.P.P.P.U.U.U.P.I.W.m.=./ / ] ^ ) r.P.Q.P.m.z.m.N.C.R.Y.P.P.P.P.P.U.U.P.P.I.P.H.H.H.H.P.Q.",
"~.C.R.Z.R.Q.R.Q.P.Q.P.N.h.j.B.B.Z.P.Q.R.Q.Q.Q.Q.).Q.P.I.W.l.D * 1 3 1 2 @.P.Q.P.l.h.l.B.C.R.Y.R.Q.Q.Q.Q.Q.Q.Q.W.Q.W.K.W.W.K.W.Q.",
"~.C.R.A.!.^.!.Q.P.Q.P.N.l.z.V.Z.C.P.Q.!.^.'.'.'.'.Q.P.I.W.l.F * 3 4 1 4 @.P.Q.P.l.n.l.C.Z.P.Y.R.^.'.'.'.'.'.`._.`._.L._._.L._.`."
};
