/* XPM */
static char *result[] = {
/* columns rows colors chars-per-pixel */
"64 64 106 2 ",
"   c #2B2135",
".  c #2F2439",
"X  c #32263B",
"o  c #36293E",
"O  c #382B3F",
"+  c #3C2D42",
"@  c #3E3043",
"#  c #402F45",
"$  c #423246",
"%  c #463449",
"&  c #4A364C",
"*  c #4C3A4D",
"=  c #503D4F",
"-  c #4F3651",
";  c #4F3A50",
":  c #503751",
">  c #533D53",
",  c #583F57",
"<  c #573D58",
"1  c #5A3E5B",
"2  c #554254",
"3  c #594356",
"4  c #5D445A",
"5  c #5E495A",
"6  c #62455E",
"7  c #634B5D",
"8  c #684D5F",
"9  c #67505F",
"0  c #644661",
"q  c #694766",
"w  c #664A61",
"e  c #6B4C64",
"r  c #6C4669",
"t  c #6D4B6A",
"y  c #714D6C",
"u  c #675161",
"i  c #6C5264",
"p  c #6F5867",
"a  c #6F5168",
"s  c #715366",
"d  c #705967",
"f  c #74546B",
"g  c #78566E",
"h  c #755A6B",
"j  c #7B5C6E",
"k  c #754F70",
"l  c #775270",
"z  c #795571",
"x  c #7D5D71",
"c  c #7C616F",
"v  c #7F6171",
"b  c #805E6F",
"n  c #805E73",
"m  c #836374",
"M  c #886777",
"N  c #856976",
"B  c #886877",
"V  c #856479",
"C  c #89677A",
"Z  c #876978",
"A  c #8C6C7B",
"S  c #906E7E",
"D  c #8F707D",
"F  c #91717E",
"G  c #876281",
"H  c #8A6783",
"J  c #8E6D81",
"K  c #916E80",
"L  c #8D7081",
"P  c #947582",
"I  c #987784",
"U  c #977884",
"Y  c #9B7B86",
"T  c #957489",
"R  c #98768A",
"E  c #957A89",
"W  c #9D7D89",
"Q  c #9B7792",
"!  c #9E7C92",
"~  c #A07F8D",
"^  c #A17E94",
"/  c #9F808B",
"(  c #A2818C",
")  c #A48294",
"_  c #A98696",
"`  c #A68896",
"'  c #A88897",
"]  c #A68499",
"[  c #AA869D",
"{  c #A7899A",
"}  c #AC8B9C",
"|  c #AB87A1",
" . c #AD89A3",
".. c #AD8BAA",
"X. c #B18BA4",
"o. c #B18CA8",
"O. c #AF91A0",
"+. c #B394A6",
"@. c #B395A9",
"#. c #B699AD",
"$. c #B89BAE",
"%. c #AE92B7",
"&. c #B69BB6",
"*. c #B99EB1",
"=. c #B292BA",
"-. c #BEA1B5",
/* pixels */
"O f f f 0 0 0 0 q q t q t f Z F A N x m m B A m U W Y Y Y Y W Y Y ) | | | X.H q s w 2 2 c P Y W Y Y Y Y Y Y Y Y Y Y Y Y U h j a ",
"& + < t 0 0 0 0 t y y t t V x f m A x m j N I U I Y Y Y W ^ ~ W ~ ] X.[ ^ G t w f l x u = i x A U / Y Y W Y W W Y m F m m s 2 % ",
"n 3 + 1 t q 0 w t t t k n n g g N M x m A I W Y Y Y Y Y W ) ) | | ^ T A y 4 6 z z f V A j 5 % i A F U Y Y Y Y D m a 7 j i 2 7 D ",
"Y U 7 . > n t 0 z z t f A n f r M I j m F W W Y Y Y W Y Z F U ) Y Z g g 4 6 x y l n A n P W Z 5 h 7 A m m A m j e 7 * = 3 p +.` ",
" .*.T 7 2 7 z z x z y l x f k n C A x x A Y P Y Y Y U I N A m m A z f l 1 0 l y l f f x Y ` -.+.R h u 5 5 4 5 > % O 5 Z O.O.*.` ",
"|  .#.+.W * ; t z k x t r y x m A C x x m Y P A A m N D m m z y y z z f $ 1 k y t x z V W / / / +.@.) E E U E E / / } -.$.$.+._ ",
"| |  .*.#.v 5 % > f l y y l m v P A m n m m A M c m b j f l r q f h 2 > + 1 y n m m m U W Y Y Y I Y ( @.-.-.-.-.-.-.$. .X.| [ ~ ",
"| | | #.&.H B u X @ 4 f f x n z n j z x x x g g g g f g 4 : 2 4 5 g g m f 4 x x g m B F Y Y I W Y Y Y Y ) +.@.O.@.{ | | | ] W W ",
"| | [ | %.T c $ % 7 > * 5 a 4 1 1 0 w 0 q 4 + % % & ; 2 6 0 f g m J T / W 9 2 m z f Z S F Y ( / Y Y Y Y Y W | [ | | [ ] ) W F A ",
"] [ ` ` / N * 3 u L F v N u 4 4 5 5 5 4 5 5 $ $ + 4 y 0 k y m A Y ' #.#.{ ! 5 2 d x M B m m A F W W Y W Y W ) ) ) ) ) I A A N A ",
"~ ( D h 5 & e g J ( / ) A Y U K Y / A m m M h % 4 q f t f z I / Y U } +.@.} ] V 5 7 u n A j c m M F F F W Y W U L D m n m m A S ",
"2 5 > * 7 v h f A  .@.#.' Y ` @.} @.} A A m u > f w q y l P Y Y Y Y Y Y ` / [  .) I 3 5 A m m m j b m m A A A M m m m h g j h 2 ",
"% & e j g m m A ^ ^ W A P [ #.*.@.$.$.W F m e 3 f w r y x F Y Y Y Y Y Y Y Y } | } [ ^ N u a v m A h 7 7 7 7 7 7 7 7 4 w 9 u g v ",
"q j g 6 6 h m P T x m B x I  . . . .| / F m 9 1 w q y f m A W Y / W Y Y Y Y ) | | }  .] ( 9 $ * * @ X $ + i 0 q h v Z n U U A ( ",
"6 g w w e m m b x m m n j A / ] ] [ | ] W M s > w y l j m A D A A I Y Y W Y Y ) ] | [ | ' c   + : 3 w m f z x Z T / Y Z m V U W ",
"w 6 e h m m j m j j m m A m F Y I J C A S M S e 0 z l y x x A x t v x V L P Y I ) [ [ W v 2 * d x z z j x m I Y F U F W W / Y Y ",
"w w j e b m b b B m B m m m Y A m s 7 5 4 5 9 3 % < < > 3 4 7 6 t t t l l z Z v D / U 7 > m x y t g m m m F Y F W W Y Y Y Y Y Y ",
"6 a e 6 s g m j m m m m m A S j 6 e T L c j x N V V V V v j c e > 2 w w z n l g A h 3 s 0 f l y g g m I I F U W Y I Y Y Y Y Y Y ",
"6 w t e w x m I m m m j Y ( S d 9 W ) ( ) / ) ) U J ^ X. .| { ! ! J v i 2 & & h 7 > f q 6 w y l g A W U F / Y Y W I Y Y Y Y Y W ",
"f e g e s g N I m b m m N Z 5 a W ) P Y W Y D j s q ] ! Q %.| | | [ ! T N % o @ % 6 w 6 t s 0 k f P Y P F W Y Y Y / ( / ( / W I ",
"* , w a q v A j b v m m g 0 % A A m j m A m m s H Q ] ) ] ) ] } | .. .| [ W w + q q 7 0 w w r t f A Y U W Y W / / N N A m m 2 5 ",
"7 u 7 > e h j A B x j m g > 3 j s j v z m m 6 x ! ) ) Y W W W ) [ .. .[ | ` A % 6 f w q e 0 f n Y Y Y W W W U A i ; > : = 3 7 c ",
"M m c A d 2 % h i j j w e * d m f 6 g f e f 0 V ( / I Y W Y Y I W | | | | ) / D & t w w y t f Z z x ) L m m 5 3 w 7 q d z V A N ",
"m j m m b A i p 7 3 5 > 2 * j f f a 0 e t f 0 e I W W W W W Y Y E ) | | | } Y / N e t q t y k y l p u > 2 3 h e w z R R ] [ | ) ",
"I A B b j j m A F N m B h 2 & 2 w w 0 w y y f M A F Y F I Y Y Y Y ) ) | | | ] ( W * w 0 e f t s 5 , : 4 q w s x J ]  . .[ ] |  .",
"W W I F F A j n j m m b M I 7 . 4 t 0 a m z g m x F B m N A W W W ] ! ] | [ [ [ ( d 7 l q % % 6 0 0 t f g R ^ ^ | | | } | | | [ ",
"W ^ W Y U P A P F N j m j A N 6 * * 4 w e h j x m F m I P U I F A A A A m N v w 7 i 2 2 4 $ ; e w g m V ] | [ W W ] | | | | | ) ",
"Y Y ) [ ] ) [ ] ) Y b j b m m n g a 4 2 0 w f m b j c g m m v j x A h s 7 3 v c N p * $   % t g j m A Z W o.^ Y Y Y ^ ] ] | ] Y ",
"W Y Y I ) ] | [ [ ` F A m j g 0 g m b e = 3 x m c b m F m j x l y 0 $ 6 N x m n D I I A u @ & v A N m b m ! [ W Y Y Y Y Y W W Y ",
"Y Y W Y W ) | | | | ] ) W I f w s h w y a : 0 f j b A K x t 4 1 : 6 4 f A m B A F P F Y ( v & 3 g A F A m x ) W Y Y W Y Y Y Y Y ",
"Y Y Y Y Y W | | | | | | ] A N w w e w w f 3 1 y f j f y y - & 4 h g e h m b m A Y Y Y Y ) ' ^ h % d A B B m m Y Y Y Y W Y Y Y Y ",
"Y Y W Y Y Y ) ] [ | | | Y m m s w t s 4 > % > q t y t t - > 0 0 e g b c j j m m Y Y Y Y W W _ ' Y c = 9 x M m Z F W Y W Y W Y W ",
"/ W W I W W W Y ] [ | _ I m m b e 1 = $ # 3 2 % , 6 1 $ 2 h w 0 e j m n g g j N / Y / Y Y F Y ) ( ~ u o 7 A A m F W Y Y Y Y Y Y ",
"F F W Y Y F A I ( Y U A h 7 8 2 = = 6 e e n m 7 > & + & 7 g g e w g j e g j j b F / Y Y / ( W ' [ ) ~ U 4 7 N m I W Y Y Y Y Y W ",
"F A A m m j m m h 2 & > 4 4 6 s m m F M C ^ ^ ~ P f h h A 7 5 5 7 3 > t g g h s m F W Y Y Y Y W [  .[ X.! > 6 x m A F I F A Y W ",
"D F N j j m h 2 % 3 d m m F F F Y W A A ^ ) ] [ [ [ ` ) ) Y Y A i i u 5 > 6 s g g F W Y Y Y Y / [ | | | } A % 0 g c m B A A U Y ",
"b j m m m 4 & 2 a n F m I / / / W Y I / I Y W W Y ~ ) | | [ [ | X.} / A 7 3 $ w s b I Y Y Y Y / | | | | _ j + + w e e g j m m x ",
"j h = = 2 % 7 g n M A I W F F Y I W Y Y W Y Y W Y Y Y ^ ) [ | | | | | ] ( Y m 7 8 g D / W Y Y Y ^ [ } } c o $ + = * = w 6 w 6 4 ",
"$ O O o $ 6 q g m z x F F b g B F F F D Y W Y W Y Y Y Y Y ] | | | [ | | } ` D & 7 g A Y Y Y / Y Y / D u @ % w x g h m c 7 9 w 9 ",
"A A N 4 & O 3 > : w s e g m A M F I F N m m m S I P P P Y U ]  .| | }  ./ v % 2 2 > i m I / ( ( Y A & + a f l f n B U ( ( ( ( ( ",
"/ / W Y I u 7 u 3 * > > 5 h m P m m B B h m j n N m A S I A | [ ] ] P h u 3 i S b h 6 9 Z A u h w + $ t l y f z c F W I Y Y Y Y ",
"W ) [ ~ W ( ( ( Y h d j h : > d s b I A w j j g b g g A W } W c N i 5 u s m A B P A A b 9 3 $   . > s 0 t C l f j B W Y Y Y Y Y ",
"W ` [ | [ ) ) ) ) ] Y D m m 7 3 * 7 2 7 e a 6 0 a s s d 7 h 9 * 5 u b m S A F P W F W ( ) ! U h @ 2 g 6 w q t t M I Y Y W Y Y Y ",
"I Y W ) ] | | }  .| W W I m m m c e * O + + + $ # # $ : * e i j A A I Y Y ~ ) ) ` ] ] [  .| ] ( B & 6 0 0 h f t A W Y Y Y Y W Y ",
"Y Y Y Y W ^ ) | ] [ W U U m b b m m A e : # O + O 3 4 h m m m j F W Y Y I ` [ ) ^ ] ] ] | | | ) ( N * t q x l z b U W Y Y Y Y Y ",
"Y Y Y Y Y Y Y ( [ | ] ) W U m j m n b j 6 * # O > f e 0 s B j m I W Y Y Y Y Y W W W Y ~ | [ | | ) / 3 3 f y z x c N Y Y Y W W Y ",
"Y W Y Y Y Y Y Y ] | | | ] ) S j m m f 1 w , O > 0 6 w h g m x D W Y Y W Y Y Y Y Y Y Y W ( ) | | | ) W 2 f n t y j j F W Y Y Y Y ",
"Y Y W Y W Y Y Y ` | | | | } ( A m m j a 0 0 * 6 0 0 s b m b P Y Y Y Y Y Y Y Y Y W Y Y Y W [  .| | [ ) 5 y y n n j e g Y W W Y Y ",
"Y Y Y Y Y Y Y Y Y / ] | | | [ ) A g s a w , : w e 6 t F m c m A W Y Y Y Y Y Y Y Y Y Y Y Y [ | | | ] W 7 t y x N x n s A W Y Y Y ",
"Y Y Y Y Y W Y Y Y Y } ] | | | } A h g w & & 6 e e s e g F b b I Y Y Y Y W Y Y W W Y Y ~ ] [ | [ | ` N % y f f A I c m S W W Y W ",
"Y U Y Y Y I Y Y Y W W W ) ) ) ) D s e : & 0 0 t 6 e e s B A m A m A W W F Y Y F I Y Y Y ) | | | [ ( 7 7 x g x m A A A F Y Y Y Y ",
"m N F / W W W W U U I / W Y Y I j e 2 O # & , w t s s j m A m n N A S B m A m j A W Y Y ~ | | | ] Y $ % 7 j m m j Y Y W W Y W Y ",
"j j M F D S S D m m F U I A F m d 2 O O & % * 3 = 6 e s m j b c m m m m b A n m F F W _ ` ) [ [ ( N + O @ + 5 m m B m D I W Y Y ",
"m m j j j j m x b B B m m m x 7 5 7 F D F P N m 4 & 5 6 h g b m B b c b b j b j j b U _ Y Y W ~ I 2 o i h i * 9 c m m j m I Y Y ",
"m m m m m j x x m A s f h 7 u c D A F D Y / Y Y F M h % 5 s j A m c j m m c j m m N A P A A I h 2 @ 3 P A D Z j 7 9 7 m N N F W ",
": , : , 3 > : > 3 1 & + 2 w n I F b m N D A B Y ~ _ R m 8 % 3 n g m B b b n c b j g x n A N h o & g j U / W Y Y F h 5 4 7 h h h ",
"u w 7 e 6 > > + O + + 2 z l x N Y M m A A A A Y Y W ] R m v 2 > h j D N b m B m m M j m 9 2 * 6 y j j M Y Y Y W W I N b h 9 8 8 ",
"m m x z n n 0 0 $ + o w z t m D A A F j m A F Y Y Y Y ` ! D b 2 i n c m j b m B c 7 > : 0 t t k y j A m I Y W I I W / A b m m B ",
"S j A J x x x 4 X # f t f z U m m W A x j j m Y Y Y Y Y / ] A j > = & = * * % * $ o * y y f x m b n N c D / Y W W Y Y Y U A M m ",
"Y m M A n l 4 * * 4 z y y l l n N D m n m A Y W Y Y Y W W W I P A h g g f a , O % a t q q w N m g m A m A Y Y W Y W Y Y W I A F ",
"W m j b y 7 % e q f y y t t k l y z l y x M B I P I W Y / Y F ( [ T T P Y S x w % 4 t q k l Z t y M A n m B P W W Y Y W Y Y W Y ",
"W F b 6 * > w 6 7 f f y x m l x y g y f f j c m U U P W Y ( ( F ^ [ | } | ] ~ ~ w o q t t l n f y j z n B b N F Y Y Y Y Y ( ( Y ",
"I i * * 6 w 0 6 a 0 j N M F n z j m m m n m j c m P P Y Y F F Y I ) | | [ | | ] W 2 ; f f f z g g m m I m j D B I Y Y Y Y )  .^ ",
"* + 4 = 3 0 0 g 7 6 q m f M m m F W I m m A F D I Y I U F Y ( W I ~ ) | | | | =.] Y 2 w n z m x A I A m F F W Y Y Y Y W Y W | ( "
};
