/* XPM */
static char *result[] = {
/* columns rows colors chars-per-pixel */
"64 64 190 2 ",
"   c #14092E",
".  c #140628",
"X  c #14113E",
"o  c #141241",
"O  c #14184D",
"+  c #141B53",
"@  c #141F5C",
"#  c #14205E",
"$  c #1B1E61",
"%  c #2B1E76",
"&  c #331A76",
"*  c #331D7C",
"=  c #152262",
"-  c #17256B",
";  c #18266E",
":  c #182771",
">  c #192874",
",  c #1B2B7C",
"<  c #20216D",
"1  c #24257B",
"2  c #2B237E",
"3  c #252479",
"4  c #1D2D83",
"5  c #1E2F89",
"6  c #1E318C",
"7  c #1E3594",
"8  c #2D2384",
"9  c #222A84",
"0  c #232E8B",
"q  c #2B2A8D",
"w  c #312183",
"e  c #20318E",
"r  c #262C94",
"t  c #292C96",
"y  c #322D99",
"u  c #223394",
"i  c #23369B",
"p  c #233A9D",
"a  c #2438A2",
"s  c #263CAC",
"d  c #273AA8",
"f  c #293EB3",
"g  c #263FB2",
"h  c #2753A9",
"j  c #2940B6",
"k  c #2A41BB",
"l  c #2D3CC1",
"z  c #343EDB",
"x  c #2C44C2",
"c  c #2E49CD",
"v  c #2D47C9",
"b  c #3042CD",
"n  c #2952C2",
"m  c #2F4AD1",
"M  c #304CD5",
"N  c #3445DE",
"B  c #334CDD",
"V  c #3144D2",
"C  c #3251DE",
"Z  c #305DDC",
"A  c #3050D6",
"S  c #2966DD",
"D  c #276EDE",
"F  c #296BDE",
"G  c #2577DD",
"H  c #2C72DE",
"J  c #237DDE",
"K  c #2C7ADF",
"L  c #3071DD",
"P  c #334DE1",
"I  c #3446E0",
"U  c #2E5CE0",
"Y  c #3352E1",
"T  c #3259E2",
"R  c #2C64E1",
"E  c #2B6BE1",
"W  c #3162E6",
"Q  c #2671E0",
"!  c #2C74E4",
"~  c #237EE0",
"^  c #2C7CE4",
"/  c #2E76EA",
"(  c #7E48D1",
")  c #5968D6",
"_  c #4B78DA",
"`  c #6168D2",
"'  c #7F67D6",
"]  c #6D7CDE",
"[  c #7277DC",
"{  c #727CDD",
"}  c #4678E0",
"|  c #717FE0",
" . c #AE34C3",
".. c #B231C6",
"X. c #9B4CCC",
"o. c #9C46C9",
"O. c #9452CE",
"+. c #9851CC",
"@. c #8B5CD2",
"#. c #8250D0",
"$. c #9055D0",
"%. c #9060CE",
"&. c #8364D5",
"*. c #8866D3",
"=. c #806DD3",
"-. c #1E84DD",
";. c #1D8CDF",
":. c #1C91DF",
">. c #2281DE",
",. c #268DDE",
"<. c #298ADE",
"1. c #259DDA",
"2. c #1EA6C4",
"3. c #1FA4D0",
"4. c #21B5D8",
"5. c #34B8DD",
"6. c #1E8DE0",
"7. c #1988E0",
"8. c #1594E1",
"9. c #1E93E3",
"0. c #1F9BE6",
"q. c #2281E1",
"w. c #2A8CED",
"e. c #2D82EB",
"r. c #2C90EF",
"t. c #299BE8",
"y. c #3795E5",
"u. c #288EF1",
"i. c #0EAEEB",
"p. c #1BACEB",
"a. c #19A4E8",
"s. c #1DB5ED",
"d. c #1CB9EF",
"f. c #1EBCF1",
"g. c #18B6F1",
"h. c #27A3E2",
"j. c #23ABE5",
"k. c #21A2EB",
"l. c #22ACEE",
"z. c #24BDE3",
"x. c #22B3E9",
"c. c #28AFF1",
"v. c #21BDF5",
"b. c #25B5F2",
"n. c #36BEF6",
"m. c #3CBEF5",
"M. c #629ADD",
"N. c #5F8EE5",
"B. c #5B92E5",
"V. c #519DEA",
"C. c #6587E2",
"Z. c #4AA8EF",
"A. c #50A2EC",
"S. c #41B0F1",
"D. c #1DC8E6",
"F. c #1EDBE4",
"G. c #1FDAED",
"H. c #1DCCF6",
"J. c #1DDBFF",
"K. c #1BD9FF",
"L. c #22C4E1",
"P. c #22CDE6",
"I. c #27D9E6",
"U. c #3DD5E2",
"Y. c #22C3F3",
"T. c #21CCF3",
"R. c #22C7F9",
"E. c #22CBFA",
"W. c #2BC4F8",
"Q. c #36C2F8",
"!. c #22D1F4",
"~. c #23D2FE",
"^. c #23DBFF",
"/. c #24D6F8",
"(. c #1EEAE6",
"). c #1EECEC",
"_. c #1FE0ED",
"`. c #1DF0EE",
"'. c #1AFEEB",
"]. c #17FBEA",
"[. c #1EEDF2",
"{. c #1BE2FF",
"}. c #1BE3F9",
"|. c #1DF3F3",
" X c #1BF7F5",
".X c #24E4E6",
"XX c #20F1ED",
"oX c #21E2F8",
"OX c #40D3DE",
"+X c None",
/* pixels */
"+X+X+X+X+X+X+X+X+X+X+X+X+X+X+X+X+X+X+X+X+X+X+X+X+X+X+X+X+X+X+X+X+X+X+X+X+X+X+X+X+X+X+X+X+X+X+X+X+X+X+X+X+X+X+X+X+X+X+X+X+X+X+X+X",
"+X+X+X+X+X+X+X+X+X+X+X+X+X+X+X+X+X+X+X+X+X+X+X+X+X+X+X+X+X+X+X+X+X+X+X+X+X+X+X+X+X+X+X+X+X+X+X+X+X+X+X+X+X+X+X+X+X+X+X+X+X+X+X+X",
"+X+X+X+X+X+X+X+X+X+X+X+X+X+X+X+X+X+X+X+X+X+X+X+X+X+X+X+X+X+X+X+X+X+X+X+X+X+X+X+X+X+X+X+X+X+X+X+X+X+X+X+X+X+X+X+X+X+X+X+X+X+X+X+X",
"+X+X+X+X+X+X+X+X+X+X+X+X+X+X+X+X+X+X+X+X+X+X+X+X+X+X+X+X+X+X+X+X+X+X+X+X+X+X+X+X+X+X+X+X+X+X+X+X+X+X+X+X+X+X+X+X+X+X+X+X+X+X+X+X",
"+X+X+X+X+X+X+X+X+X+X+X+X+X+X+X+X+X+X+X+X+X+X+X+X+X+X+X+X+X+X+X+X+X+X+X+X+X+X+X+X+X+X+X+X+X+X+X+X+X+X+X+X+X+X+X+X+X+X+X+X+X+X+X+X",
"+X+X+X+X+X+X+X+X+X+X+X+X+X+X+X+X+X+X+X+X+X+X+X+X+X+X+X+X+X+X+X+X+X+X+X+X+X+X+X+X+X+X+X+X+X+X+X+X+X+X+X+X+X+X+X+X+X+X+X+X+X+X+X+X",
"+X+X+X+X+X+X+X+X+X+X+X+X+X+X+X+X+X+X+X+X+X+X+X+X+X+X+X+X+X+X+X+X+X+X+X+X+X+X+X+X+X+X+X+X+X+X+X+X+X+X+X+X+X+X+X+X+X+X+X+X+X+X+X+X",
"+X+X+X+X+X+X+X+X+X+X+X+X+X+X+X+X+X+X+X+X+X+X+X+X+X+X+X+X+X+X+X+X+X+X+X+X+X+X+X+X+X+X+X+X+X+X+X+X+X+X+X+X+X+X+X+X+X+X+X+X+X+X+X+X",
"+X+X+X+X+X+X+X+X+X+X+X+X+X+X+X+X+X+X+X+X+X+X+X+X+X+X+X+X+X+X+X+X~.~.~.~.~.~.+X+X+X+X+X+X+X+X+X+X+X+X+X+X+X+X+X+X+X+X+X+X+X+X+X+X",
"+X+X+X+X+X+X+X+X+X+X+X+X+X+X+X+X+X+X+X+X+X+X+X+X+X+X+X+X+X+X+X~.~.~.~.~.~.~.~.+X+X+X+X+X+X+X+X+X+X+X+X+X+X+X+X+X+X+X+X+X+X+X+X+X",
"+X+X+X+X+X+X+X+X+X+X+X+X+X+X+X+X+X+X+X+X+X+X+X+X+X+X+X+X+Xk.E.~.+X^.R.R.~.~.+X+X+X+X+X+X+X+X+X+X+X+X+X+X+X+X+X+X+X+X+X+X+X+X+X+X",
"+X+X+X+X+X+X+X+X+X+X+X+X+X+X+X+X+X+X+X+X+X+X+X+X+X+X+X+X;.b.^.~.Y.p.0.-.+X+X+X+X+X+X+X+X+X+X+X+X+X+X+X+X+X+X+X+X+X+X+X+X+X+X+X+X",
"+X+X+X+X+X+X+X+X+X+X+X+X+X+X+X+X+X+X+X+X+X+X+X+X+X+X+X;.7.P.|.E.0.-.6.6.;.6.+X+X+X+X+X+X+X+X+X+X+X+X+X+X+X+X+X+X+X+X+X+X+X+X+X+X",
"+X+X+X+X+X+X+X+X+X+X+X+X+X+X+X+X+X+X+X+X+X+X+X+X+X;.;.;.k.[.!.! >.9.6.;.+X+X+X+X+X+X+X+X+X+X+X+X+X+X+X+X+X+X+X+X+X+X+X+X+X+X+X+X",
"+X+X+X+X+X+X+X+X+X+X+X+X+X+X+X+X+X+X+X+X+X+X+X+X+X;.-.k.XX'.! N R q.J 6.;.;.;.;.+X+X+X+X+X+X+X+X+X+X+X+X+X+X+X+X+X+X+X+X+X+X+X+X",
"+X+X+X+X+X+X+X+X+X+X+X+X+X+X+X+X+X+X+X+X+X+X+X+X;.;.9.D.'.Y.T C P B B Q :.;.,.+X+X+X+X+X+X+X+X+X+X+X+X+X+X+X+X+X+X+X+X+X+X+X+X+X",
"+X+X+X+X+X+X+X+X+X+X+X+X+X+X+X+X+X+X+X+X+X+X+X+X;.;.e.[.P.U B C P Y C P Q 6.;.;.+X+X+X+X+X+X+X+X+X+X+X+X+X+X+X+X+X+X+X+X+X+X+X+X",
"+X+X+X+X+X+X+X+X+X+X+X+X+X+X+X+X+X+X+X+X+X+X+X;.6.~ E '.h.z c B C P C P P D ;.;.+X+X+X+X+X+X+X+X+X+X+X+X+X+X+X+X+X+X+X+X+X+X+X+X",
"+X+X+X+X+X+X+X+X+X+X+X+X+X+X+X+X+X+X+X+X+X+X+X;.;.7.Y. Xw.l k x x m P P P B D ;.+X+X+X+X+X+X+X+X+X+X+X+X+X+X+X+X+X+X+X+X+X+X+X+X",
"+X+X+X+X+X+X+X+X+X+X+X+X+X+X+X+X+X+X+X+X+X+X+X;.,.S !.4.f j k j f k c Y T.c.^ :.;.+X+X+X+X+X+X+X+X+X+X+X+X+X+X+X+X+X+X+X+X+X+X+X",
"+X+X+X+X+X+X+X+X+X+X+X+X+X+X+X+X+X+X+X+X+X^.+X;.-.N ^ 2.r i a u a k k M P.'.^.k.-.+X+X+X+X+X+X+X+X+X+X+X+X+X+X+X+X+X+X+X+X+X+X+X",
"+X+X+X+X+X+X+X+X+X+X+X+X+X+X+X+X+X+X+X+X~.^.+X>.C N ^ 3.r a i p i a k m B L.'.H.9.;.+X+X+X+X+X+X+X+X+X+X+X+X+X+X+X+X+X+X+X+X+X+X",
"+X+X+X+X+X+X+X+X+X+X+X+X+X+X+X+X+X+X+X+X~.+X+XE I B n h w 8 u p i i u i B B L.|.k.-.6.+X+X+X+X+X+X+X+X+X+X+X+X+X+X+X+X+X+X+X+X+X",
"+X+X+X+X+X+X+X+X+X+X+X+X+X+X+X+X+X+X+X+X~.+X+X-.U P f 8 * r 0 5 4 7 a 4 p z t.'.T.9.;.+X+X+X+X+X+X+X+X+X+X+X+X+X+X+X+X+X+X+X+X+X",
"+X+X+X+X+X+X+X+X+X+X+X+X+X+X+X+X+X+X+X+X~.v.;.;.R B f * q 7 , = , 5 a a 4 b e.`.}.t.-.+X+X+X+X+X+X+X+X+X+X+X+X+X+X+X+X+X+X+X+X+X",
"+X+X+X+X+X+X+X+X+X+X+X+X+X+X+X+X+X+X+X+X^.v.;.F I C s 0 p 5 = @ - , e i e p z j.|.6.;.+X+X+X+X+X+X+X+X+X+X+X+X+X+X+X+X+X+X+X+X+X",
"+X+X+X+X+X+X+X+X+X+X+X+X+X+X+X+X+X+X+X$.A.v.;.E B Y s 6 i 4 = # @ - 6 i j x V / .Xs.q.+X+X+X+X+X+X+X+X+X+X+X+X+X+X+X+X+X+X+X+X+X",
"+X+X+X+X+X+X+X+X+X+X+X+X+X+X+X+X+X+X+X+X@.b.:.F B c k u 4 > = = @ < 2 8 q k M N z.`.:.+X+X+X+X+X+X+X+X+X+X+X+X+X+X+X+X+X+X+X+X+X",
"+X+X+X+X+X+X+X+X+X+X+X+X+X+X+X+X+X+X+X+X@.W.a.F N k x a , - # = = # 3 8 & y v N z.'.H.+X+X+X+X+X+X+X+X+X+X+X+X+X+X+X+X+X+X+X+X+X",
"+X+X+X+X+X+X+X+X+X+X+X+X+X+X+X+X+X+X+X+X@.~.f.S B x f 4 4 - @ X # # - e & * c B L I.[ +X+X+X+X+X+X+X+X+X+X+X+X+X+X+X+X+X+X+X+X+X",
"+X+X+X+X+X+X+X+X+X+X+X+X+X+X+X+X+X+X+X+X@.Q.s.S B k 4 e e - +   X @ - 4 r y k c Y c.=.O.+X+X+X+X+X+X+X+X+X+X+X+X+X+X+X+X+X+X+X+X",
"+X+X+X+X+X+X+X+X+X+X+X+X+X+X+X+X+X+X+X+Xo.{ f.S I j 4 p e - X   . X > , i s j c B :.I.+.+X+X+X+X+X+X+X+X+X+X+X+X+X+X+X+X+X+X+X+X",
"+X+X+X+X+X+X+X+X+X+X+X+X+X+X+X+X+X+X+X+X+X| s.S I c i p e - @     O > 4 u e k c Y 7.oX[ X.+X+X+X+X+X+X+X+X+X+X+X+X+X+X+X+X+X+X+X",
"+X+X+X+X+X+X+X+X+X+X+X+X+X+X+X+X+X+X+X+X+X| H.^ I P f p e - @ O + = - 4 u e f c Y J g.Z.+X+X+X+X+X+X+X+X+X+X+X+X+X+X+X+X+X+X+X+X",
"+X+X+X+X+X+X+X+X+X+X+X+X+X+X+X+X+X+X+X+X+X| oXu.N C f 5 > - # = = # - 4 u 6 v B C -.,.' +X+X+X+X+X+X+X+X+X+X+X+X+X+X+X+X+X+X+X+X",
"+X+X+X+X+X+X+X+X+X+X+X+X+X+X+X+X+X+X+X+X+X[ ^.w.N A p e , - # = = # > u 6 0 c Y B ~ <.@.+X+X+X+X+X+X+X+X+X+X+X+X+X+X+X+X+X+X+X+X",
"+X+X+X+X+X+X+X+X+X+X+X+X+X+X+X+X+X+X+X+X+X] {.w.B M f a , : # = = - e 5 f k c P C >.a.B.X.+X+X+X+X+X+X+X+X+X+X+X+X+X+X+X+X+X+X+X",
"+X+X+X+X+X+X+X+X+X+X+X+X+X+X+X+X+X+X+X+X+X&.Q.w.N B s y % 4 = # # - , 4 f v B B C J +XC.O.+X+X+X+X+X+X+X+X+X+X+X+X+X+X+X+X+X+X+X",
"+X+X+X+X+X+X+X+X+X+X+X+X+X+X+X+X+X+X+X+X+X..M.H.Z B k r 9 , > - = , 4 4 f m Y Y P J i.V.+X+X+X+X+X+X+X+X+X+X+X+X+X+X+X+X+X+X+X+X",
"+X+X+X+X+X+X+X+X+X+X+X+X+X+X+X+X+X+X+X+X+XH 5.'.^ B j u 0 % 4 4 > 4 , 4 k Y B B F -.0.n.+X+X+X+X+X+X+X+X+X+X+X+X+X+X+X+X+X+X+X+X",
"+X+X+X+X+X+X+X+X+X+X+X+X+X+X+X+X+X+X+X+X+X+Xp.[.I.A x d i w 1 4 4 2 & 4 j B Y T Q ;.9.K.J.+X+X+X+X+X+X+X+X+X+X+X+X+X+X+X+X+X+X+X",
"+X+X+X+X+X+X+X+X+X+X+X+X+X+X+X+X+X+X+X+X+X+X6.6.F.^ M g i i 4 , 1 * 2 d x Z t.u.D :.+X~.+X+X+X+X+X+X+X+X+X+X+X+X+X+X+X+X+X+X+X+X",
"+X+X+X+X+X+X+X+X+X+X+X+X+X+X+X+X+X+X+X+X+X+X;.;.D.(.N f s a 5 , 4 a g x U (.|.u.F :.+X~.+X+X+X+X+X+X+X+X+X+X+X+X+X+X+X+X+X+X+X+X",
"+X+X+X+X+X+X+X+X+X+X+X+X+X+X+X+X+X+X+X+X+X+X+X;.:.'.1.f x i u 6 u a s N Y `.m._ -.+X+X~.+X+X+X+X+X+X+X+X+X+X+X+X+X+X+X+X+X+X+X+X",
"+X+X+X+X+X+X+X+X+X+X+X+X+X+X+X+X+X+X+X+X+X+X+X;.-.h.!.M g 6 u p k i u C x..X*.) 8.+X+X~.+X+X+X+X+X+X+X+X+X+X+X+X+X+X+X+X+X+X+X+X",
"+X+X+X+X+X+X+X+X+X+X+X+X+X+X+X+X+X+X+X+X+X+X+X;.;.G E x f u 4 i k j k Y ].OX( H :.+X+X~.+X+X+X+X+X+X+X+X+X+X+X+X+X+X+X+X+X+X+X+X",
"+X+X+X+X+X+X+X+X+X+X+X+X+X+X+X+X+X+X+X+X+X+X+X+X;.:.G B M k 6 5 j c Y R (.*.) :.;.+X+X~.+X+X+X+X+X+X+X+X+X+X+X+X+X+X+X+X+X+X+X+X",
"+X+X+X+X+X+X+X+X+X+X+X+X+X+X+X+X+X+X+X+X+X+X+X+X;.;.>.T N B x 4 j m I l.U.#.H :.;.+X+X+X+X+X+X+X+X+X+X+X+X+X+X+X+X+X+X+X+X+X+X+X",
"+X+X+X+X+X+X+X+X+X+X+X+X+X+X+X+X+X+X+X+X+X+X+X+X,.;.6.J S U B s m I F .X%.) ;.;.+X+X+X+X+X+X+X+X+X+X+X+X+X+X+X+X+X+X+X+X+X+X+X+X",
"+X+X+X+X+X+X+X+X+X+X+X+X+X+X+X+X+X+X+X+X+X+X+X+X+X6.6.6.9.S N Y P W I.XX_ ;.6.+X+X+X+X+X+X+X+X+X+X+X+X+X+X+X+X+X+X+X+X+X+X+X+X+X",
"+X+X+X+X+X+X+X+X+X+X+X+X+X+X+X+X+X+X+X+X+X+X+X+X+X+X;.6.;.~ G B R !.|.H.8.;.;.+X+X+X+X+X+X+X+X+X+X+X+X+X+X+X+X+X+X+X+X+X+X+X+X+X",
"+X+X+X+X+X+X+X+X+X+X+X+X+X+X+X+X+X+X+X+X+X~.+X+X+X+X;.6.;.9.;.J j.[.b.+X+X;.+X+X+X+X+X+X+X+X+X+X+X+X+X+X+X+X+X+X+X+X+X+X+X+X+X+X",
"+X+X+X+X+X+X+X+X+X+X+X+X+X+X+X+X+X+X+X+X+X+X+X+X+X~.+X-.;.-.9.E.{.g.-.+X6.;.+X+X+X+X+X+X+X+X+X+X+X+X+X+X+X+X+X+X+X+X+X+X+X+X+X+X",
"+X+X+X+X+X+X+X+X+X+X+X+X+X+X+X+X+X+X+X+X+X+X+X+X+X~.K.+Xl.k.E.K.Z.y.;.6.;.+X+X+X+X+X+X+X+X+X+X+X+X+X+X+X+X+X+X+X+X+X+X+X+X+X+X+X",
"+X+X+X+X+X+X+X+X+X+X+X+X+X+X+X+X+X+X+X+X+X+X+X+X+X+XB.S.{.K.K.N.X.+X8.+X+X+X+X+X+X+X+X+X+X+X+X+X+X+X+X+X+X+X+X+X+X+X+X+X+X+X+X+X",
"+X+X+X+X+X+X+X+X+X+X+X+X+X+X+X+X+X+X+X+X+X+X+X+X+X+X .*.N.N.C.X.+X+X+X+X+X+X+X+X+X+X+X+X+X+X+X+X+X+X+X+X+X+X+X+X+X+X+X+X+X+X+X+X",
"+X+X+X+X+X+X+X+X+X+X+X+X+X+X+X+X+X+X+X+X+X+X+X+X+X+X+X+X+X+X+X+X+X+X+X+X+X+X+X+X+X+X+X+X+X+X+X+X+X+X+X+X+X+X+X+X+X+X+X+X+X+X+X+X",
"+X+X+X+X+X+X+X+X+X+X+X+X+X+X+X+X+X+X+X+X+X+X+X+X+X+X+X+X+X+X+X+X+X+X+X+X+X+X+X+X+X+X+X+X+X+X+X+X+X+X+X+X+X+X+X+X+X+X+X+X+X+X+X+X",
"+X+X+X+X+X+X+X+X+X+X+X+X+X+X+X+X+X+X+X+X+X+X+X+X+X+X+X+X+X+X+X+X+X+X+X+X+X+X+X+X+X+X+X+X+X+X+X+X+X+X+X+X+X+X+X+X+X+X+X+X+X+X+X+X",
"+X+X+X+X+X+X+X+X+X+X+X+X+X+X+X+X+X+X+X+X+X+X+X+X+X+X+X+X+X+X+X+X+X+X+X+X+X+X+X+X+X+X+X+X+X+X+X+X+X+X+X+X+X+X+X+X+X+X+X+X+X+X+X+X",
"+X+X+X+X+X+X+X+X+X+X+X+X+X+X+X+X+X+X+X+X+X+X+X+X+X+X+X+X+X+X+X+X+X+X+X+X+X+X+X+X+X+X+X+X+X+X+X+X+X+X+X+X+X+X+X+X+X+X+X+X+X+X+X+X",
"+X+X+X+X+X+X+X+X+X+X+X+X+X+X+X+X+X+X+X+X+X+X+X+X+X+X+X+X+X+X+X+X+X+X+X+X+X+X+X+X+X+X+X+X+X+X+X+X+X+X+X+X+X+X+X+X+X+X+X+X+X+X+X+X",
"+X+X+X+X+X+X+X+X+X+X+X+X+X+X+X+X+X+X+X+X+X+X+X+X+X+X+X+X+X+X+X+X+X+X+X+X+X+X+X+X+X+X+X+X+X+X+X+X+X+X+X+X+X+X+X+X+X+X+X+X+X+X+X+X",
"+X+X+X+X+X+X+X+X+X+X+X+X+X+X+X+X+X+X+X+X+X+X+X+X+X+X+X+X+X+X+X+X+X+X+X+X+X+X+X+X+X+X+X+X+X+X+X+X+X+X+X+X+X+X+X+X+X+X+X+X+X+X+X+X"
};
