/* XPM */
static char *_7826a58b55b40f09cde028de20f91b22H6mWuY1lQcS5kXk[] = {
/* columns rows colors chars-per-pixel */
"64 64 234 2 ",
"   c None",
".  c #030305",
"X  c #0C0606",
"o  c #03060A",
"O  c #0B060A",
"+  c #03080A",
"@  c #0D090B",
"#  c #090807",
"$  c #1A0405",
"%  c #130609",
"&  c #1B050A",
"*  c #12090B",
"=  c #170809",
"-  c #0E1316",
";  c #181513",
":  c #161612",
">  c #110A13",
",  c #240405",
"<  c #2C0304",
"1  c #25090B",
"2  c #2C0A0A",
"3  c #280709",
"4  c #330304",
"5  c #3C0405",
"6  c #34090A",
"7  c #3B0A0A",
"8  c #340708",
"9  c #271418",
"0  c #381413",
"q  c #2B100F",
"w  c #372715",
"e  c #151D25",
"r  c #3A352E",
"t  c #343B39",
"y  c #2D272F",
"u  c #460304",
"i  c #4C0204",
"p  c #420B09",
"a  c #4B0B0B",
"s  c #4B0609",
"d  c #530304",
"f  c #5A0505",
"g  c #540B0B",
"h  c #5D0A0B",
"j  c #530807",
"k  c #471517",
"l  c #591B1C",
"z  c #571415",
"x  c #44110F",
"c  c #630405",
"v  c #6B0205",
"b  c #6C0409",
"n  c #630A0A",
"m  c #6D0A0A",
"M  c #660708",
"N  c #730404",
"B  c #72050A",
"V  c #750A0B",
"C  c #7A0B0B",
"Z  c #7B0707",
"A  c #67190C",
"S  c #78140D",
"D  c #780E11",
"F  c #651818",
"G  c #7B1315",
"H  c #791918",
"J  c #670E10",
"K  c #682212",
"L  c #6D2C14",
"P  c #5E1D25",
"I  c #6D1A20",
"U  c #751E22",
"Y  c #572D35",
"T  c #692122",
"R  c #7A2223",
"E  c #6D2D30",
"W  c #71501D",
"Q  c #38394C",
"!  c #44375D",
"~  c #374258",
"^  c #324346",
"/  c #3E4960",
"(  c #1A424F",
")  c #415F68",
"_  c #705064",
"`  c #61495D",
"'  c #810C0D",
"]  c #840B0A",
"[  c #85170D",
"{  c #851314",
"}  c #8A1414",
"|  c #831A1B",
" . c #8D1B1C",
".. c #891B14",
"X. c #931C1C",
"o. c #951A18",
"O. c #8E140F",
"+. c #A41E1D",
"@. c #882519",
"#. c #962118",
"$. c #973618",
"%. c #8F2C10",
"&. c #A6320F",
"*. c #A73611",
"=. c #AE3713",
"-. c #8B1E20",
";. c #9A1F20",
":. c #882727",
">. c #952323",
",. c #9B2323",
"<. c #9C292A",
"1. c #962829",
"2. c #9B3A35",
"3. c #A92424",
"4. c #A52A2B",
"5. c #AB2B2B",
"6. c #A52626",
"7. c #B22E2D",
"8. c #B22624",
"9. c #AD3429",
"0. c #B33528",
"q. c #AD2F30",
"w. c #B62E30",
"e. c #AC3636",
"r. c #B63434",
"t. c #C13F23",
"y. c #A74719",
"u. c #BA471A",
"i. c #B2551C",
"p. c #A1400F",
"a. c #B35031",
"s. c #AC7125",
"d. c #86461C",
"f. c #C6471D",
"g. c #D65D19",
"h. c #C85617",
"j. c #E25A19",
"k. c #D36D19",
"l. c #E76717",
"z. c #E57419",
"x. c #EB741A",
"c. c #E97818",
"v. c #EA6D0F",
"b. c #D44A24",
"n. c #CA4924",
"m. c #E16421",
"M. c #D86725",
"N. c #803841",
"B. c #A44545",
"V. c #B64546",
"C. c #BC5251",
"Z. c #C65556",
"A. c #C66969",
"S. c #D27E7D",
"D. c #CC7473",
"F. c #79987B",
"G. c #6B8873",
"H. c #BD8729",
"J. c #EA841B",
"K. c #ED8518",
"L. c #F2831B",
"P. c #F58B1E",
"I. c #EE9A1F",
"U. c #F6971E",
"Y. c #FFA40D",
"T. c #EEA21A",
"R. c #F2A51E",
"E. c #FAA718",
"W. c #FCB01D",
"Q. c #D1982E",
"!. c #E78A26",
"~. c #EB9925",
"^. c #EE9B2C",
"/. c #DCAA3D",
"(. c #EFA725",
"). c #F2A621",
"_. c #F3A922",
"`. c #F5A927",
"'. c #BF9E62",
"]. c #99AA78",
"[. c #B4B77A",
"{. c #919662",
"}. c #F5B442",
"|. c #F9B541",
" X c #EDAA45",
".X c #DB9348",
"XX c #FFC144",
"oX c #17698B",
"OX c #286B89",
"+X c #2C7490",
"@X c #457A90",
"#X c #1B8EBA",
"$X c #2695BB",
"%X c #2F8BB0",
"&X c #528B94",
"*X c #69A8A5",
"=X c #73B2B8",
"-X c #75A499",
";X c #34A6C9",
":X c #34ACD3",
">X c #49A9C8",
",X c #52ADC7",
"<X c #4CB3CE",
"1X c #5AB8C9",
"2X c #51B9D7",
"3X c #78AEC4",
"4X c #65BCCD",
"5X c #74BDC9",
"6X c #78C3CD",
"7X c #7CCAD6",
"8X c #6FC3CF",
"9X c #95ADB1",
"0X c #D7898A",
"qX c #DCBF97",
"wX c #E0A1A2",
"eX c #8DC1AF",
"rX c #E1C69B",
"tX c #E6C99B",
"yX c #F6D296",
"uX c #F6D7A2",
"iX c #E0CBA0",
"pX c #81C7CF",
"aX c #98CDD8",
"sX c #9AD0D9",
"dX c #85C5D2",
"fX c #A4D3DC",
"gX c #AAD6DE",
"hX c #ACD5DC",
"jX c #BBDAE2",
"kX c #A2DFE7",
"lX c #C2DAE4",
"zX c #CBDDE5",
"xX c #C7E1E7",
"cX c #D0E0E8",
/* pixels */
"                                                                                                                                ",
"                                                                                                                                ",
"                                              > * @ * * * * * * * * * *                                                         ",
"                                          O o T 4.<.<.<.<.<.<.<.<.<.<.S 1 o                                                     ",
"                                        o a g D } X.7.7.5.5.5.5.5.5.5.6.:.F 7                                                   ",
"                                      @ p V C C B C X. .4.7.5.5.5.5.5.5.8.+.V 3                                                 ",
"                                    & 7 C C B C C B B Z X.,.4.5.5.5.5.5.V.C.e.D 2                                               ",
"                                    1 C V C V C C V C C B N } 5.5.5.5.6.A.wXA.6.V *                                             ",
"                                  X 8 C C V C V C V C ' [ [ C ..4.5.5.q.A.0XA.X.R %                                             ",
"                                o 8 V V V C V C C C ' g.~.`.y.v [ 5.5.D.C.5.o.2.qX:                                             ",
"                                o 7 ] V C C B C N ..g.~.).R.(.y.v } 5.e.r.} p. XtX;                                             ",
"                                o 7 ' V V C C B %.g.U.R.).)._.~.i.v } }  .m p.XXrX;                                             ",
"                                o 7 C V C C Z #.g.U.R.R.R._.T._.~.i.b v v %.k.}.rX;                                             ",
"                                o 7 ] V V C Z f.P._.R.R._.R._.).).`.y.*.$.k.W.}.tX;                                             ",
"                                + 7 Z m ' C B =.J.)._.R.R._._.R.R.R.`._.`._.T.}.rX;                                             ",
"                                . 7 m f <.{ B u.l.c._.R._.R.R.R.).).R.R.(._.T.}.rX;                                             ",
"                                o 3 d i h ,.{ V =.x._._.R.R.R._.).).).).R.(.R.XXrX;                                             ",
"                              o 3 u i i i n ;.D =.x.x.z.E.R.R.R.(.).).T.R.(.R.`.tX;                                             ",
"                              + 7 i h -.m i >.} &.x.J.!.F.Q.Y.E.E.R._._._._.Y./.*X@                                             ",
"                              + 4 n  .X.M s ;.{ &.K._.`.{.9X[.{.{.J.J.J.J./.{.9X*X-                                             ",
"                              O < G  .c s i ,.{ &.x.`.).Y.[.eX*XG.c.c.z.v.'.*X*XuX;                                             ",
"                              o 3 i i s i i ;.{ &.x.).)._.R.R.R.E.R._.)._.).T.`.qX;                                   = 9       ",
"                                O 3 d d s i m D  .f.z.~._.R.R.).R.R.R.R.).).T.}.rX;                             > # 3 } :.>     ",
"                                  O , i i m B C C ..0.z.I._.).).).).)._._.`.T.}.iX; . o .                     > I 1.| } ,.5 >   ",
"                                    1 B M C C V V { 0.l.).).R.R.).).c.c.c.~._.(.^.7 u F U z o .               . R r.X.{ ,.i 4 & ",
"                              o   & < p C C V Z V C o.u.z.I._._.T.c.J.J.J.c.U.!.K M  .3.Z.B.z l * !           # R r.X.{ <.d H 2 ",
"                            6 6 6 s i $ p V C C C C C 3.j.L.P.P.P.P.`.U._.U.k.W 2 V 4.3.Z.0XZ.7., .           # R w.#.{ ,.d 4.0 ",
"                          1 V C C { S h = j n h h h h :.y.i.i.i.i.H.H.i.s.Q.W & ' V #.6.C.0XA.-.E Y r r r r w # R 7.o.-.2.n 4.0 ",
"                        1 V V V Z  .7.4.g = X O X O X % X X X O X X X X $ . 7 C V C V o.5.4. .A yXuXuXuXuXyXQ.1 -.o.} _ %Xe.4.0 ",
"                      2 m V V V #.6.V.S.D i u i u i u u u u u s u u u i u u h C V C C V ;.-.K ^.(.(.(.(.`.i.q 1.4.8._ >XfX=X2.0 ",
"                        2 f V V ,.5.q.V.<.C b m N P OXOXOXY N m V m i M V m c f C C V C n H h.x.c.z.J.M.1.0 R 5.5.8.` <XjX5XB.6 ",
"                      o # i n V { 6.7.5. .M V C Y @X<X<X<X@XP ' V f M V V C V M c c f d S h.v.l.t.n.b.1.k U 7.q.X.+._ >XhX5X1.2 ",
"                    1 7 5 f < f f m @.| V c f v ~ :X6XsX6X:XQ c h f C C B V C f 3 < u m 0.j.b.b.7.I l 9 2 3.q.#.m C ` :XkX7Xw & ",
"                  1 s ] } G k , A J 5 i V C M d ~ :X6XfXpX:XQ i n C V V C V f 3 + + < z U I I I R q . . 3 ' ,.b u 4 y OX&X) e   ",
"                & g ]  .q.V.7.0 d.y.h d V V C c Q %X1X1X4X%XY f C B C C V f , o     o o o o . . o       3 n h u = + # . . .     ",
"              @ J C X.5.e.S.e.7.0 L u.i V V V V C Y %X%X$XY N V V C V V f , o                             O # #                 ",
"              X h 6.6.6.6.G 4.5.} 7 3 d d V V V C V F k F D C C C V C f d 3 .                                                   ",
"              O h o.Z.A.6.;.} D p * # $ u d h f h f d f , = & & 2 f f u | k .                                                   ",
"              O n +.B.V.7.5.m < *   # X M M i u i d c , l l l a 4 , i G | g ,                                                   ",
"              @ 7 >.+.} ;.| 7 *       * a M M f f j a x | 5.r.6.S < 4 R h i 4 o                                                 ",
"                o l :.U f 4 O           # 4 f B f < % 5.g G 5.5.4.:.1 u d d < +                                                 ",
"                  O O O # O               # a A F x = <.h M #.6.V.S.D m f d 4 o                                                 ",
"                                          . y.!.(.s.* <.h M C o.e.4.S , 4 d 4 +                                                 ",
"                                          . A ..%.A * 4.n u H 5.5.4.!.K $ = *                                                   ",
"                                          O h Z V m g 0 -.-.,.5.0.g.*.G p = .                                                   ",
"                                            6 n C Z V # 1.w.4.0.n.=.N B N u &                                                   ",
"                                            o p N M M , l 9.t.n.=.b C C C M 4 .                                                 ",
"                                            O 3 j S [ A % d.l.&.b C C V V h < -                                                 ",
"                                              o L l.l.^.w < m C V V V V f d , t xX                                              ",
"                                              o 7 ..S | d & a C V V V f i d , t xX                                              ",
"                                                & < f d d u 3 p C C f i s < ^ =XdXjX                                            ",
"                                                  O , i s d $ , b f i i f , ( 2X7XjX                                            ",
"                                                    O 3 u d 5 , < i d d 4 e oX$X,XsXjX                                          ",
"                                                      O 3 i d 8 & 7 7 4 y +X:X$X#X>XsXjX                                        ",
"                                                        O 8 s i 5 X . * &XdX6X1X$X$X,XfXzX                                      ",
"                                                          O 4 d s p # 9X      5X8X8X$XdX                                        ",
"                                                          # 4 f u * OXsX          6X4X8XfX                                      ",
"                                                            & $ y &X#XfXxX            5X7XsX                                    ",
"                                                                / 7X<X,XfX                sXlXlX                                ",
"                                                                  6X7X;XaXcX                lXlX                                ",
"                                                                      3XaXjXjX                  lX                              ",
"                                                                        3XaXzX                                                  ",
"                                                                              lX                                                ",
"                                                                                                                                "
};
