/* XPM */
static char *e6bed94add174b6fc22dcddb28d19c31yrsP1qmIccgGFnkv[] = {
/* columns rows colors chars-per-pixel */
"64 64 234 2 ",
"   c None",
".  c #030305",
"X  c #0C0606",
"o  c #03060A",
"O  c #0B060A",
"+  c #03080A",
"@  c #0D090B",
"#  c #090807",
"$  c #1A0405",
"%  c #130609",
"&  c #1B050A",
"*  c #12090B",
"=  c #170809",
"-  c #0E1316",
";  c #181513",
":  c #161612",
">  c #110A13",
",  c #240405",
"<  c #2C0304",
"1  c #25090B",
"2  c #2C0A0A",
"3  c #280709",
"4  c #330304",
"5  c #3C0405",
"6  c #34090A",
"7  c #3B0A0A",
"8  c #340708",
"9  c #271418",
"0  c #381413",
"q  c #2B100F",
"w  c #372715",
"e  c #151D25",
"r  c #3A352E",
"t  c #343B39",
"y  c #2D272F",
"u  c #460304",
"i  c #4C0204",
"p  c #420B09",
"a  c #4B0B0B",
"s  c #4B0609",
"d  c #530304",
"f  c #5A0505",
"g  c #540B0B",
"h  c #5D0A0B",
"j  c #530807",
"k  c #471517",
"l  c #591B1C",
"z  c #571415",
"x  c #44110F",
"c  c #630405",
"v  c #6B0205",
"b  c #6C0409",
"n  c #630A0A",
"m  c #6D0A0A",
"M  c #660708",
"N  c #730404",
"B  c #72050A",
"V  c #750A0B",
"C  c #7A0B0B",
"Z  c #7B0707",
"A  c #67190C",
"S  c #78140D",
"D  c #780E11",
"F  c #651818",
"G  c #7B1315",
"H  c #791918",
"J  c #670E10",
"K  c #682212",
"L  c #6D2C14",
"P  c #5E1D25",
"I  c #6D1A20",
"U  c #751E22",
"Y  c #572D35",
"T  c #692122",
"R  c #7A2223",
"E  c #6D2D30",
"W  c #71501D",
"Q  c #38394C",
"!  c #44375D",
"~  c #374258",
"^  c #324346",
"/  c #3E4960",
"(  c #1A424F",
")  c #415F68",
"_  c #705064",
"`  c #61495D",
"'  c #810C0D",
"]  c #840B0A",
"[  c #85170D",
"{  c #851314",
"}  c #8A1414",
"|  c #831A1B",
" . c #8D1B1C",
".. c #891B14",
"X. c #931C1C",
"o. c #951A18",
"O. c #8E140F",
"+. c #A41E1D",
"@. c #882519",
"#. c #962118",
"$. c #973618",
"%. c #8F2C10",
"&. c #A6320F",
"*. c #A73611",
"=. c #AE3713",
"-. c #8B1E20",
";. c #9A1F20",
":. c #882727",
">. c #952323",
",. c #9B2323",
"<. c #9C292A",
"1. c #962829",
"2. c #9B3A35",
"3. c #A92424",
"4. c #A52A2B",
"5. c #AB2B2B",
"6. c #A52626",
"7. c #B22E2D",
"8. c #B22624",
"9. c #AD3429",
"0. c #B33528",
"q. c #AD2F30",
"w. c #B62E30",
"e. c #AC3636",
"r. c #B63434",
"t. c #C13F23",
"y. c #A74719",
"u. c #BA471A",
"i. c #B2551C",
"p. c #A1400F",
"a. c #B35031",
"s. c #AC7125",
"d. c #86461C",
"f. c #C6471D",
"g. c #D65D19",
"h. c #C85617",
"j. c #E25A19",
"k. c #D36D19",
"l. c #E76717",
"z. c #E57419",
"x. c #EB741A",
"c. c #E97818",
"v. c #EA6D0F",
"b. c #D44A24",
"n. c #CA4924",
"m. c #E16421",
"M. c #D86725",
"N. c #803841",
"B. c #A44545",
"V. c #B64546",
"C. c #BC5251",
"Z. c #C65556",
"A. c #C66969",
"S. c #D27E7D",
"D. c #CC7473",
"F. c #79987B",
"G. c #6B8873",
"H. c #BD8729",
"J. c #EA841B",
"K. c #ED8518",
"L. c #F2831B",
"P. c #F58B1E",
"I. c #EE9A1F",
"U. c #F6971E",
"Y. c #FFA40D",
"T. c #EEA21A",
"R. c #F2A51E",
"E. c #FAA718",
"W. c #FCB01D",
"Q. c #D1982E",
"!. c #E78A26",
"~. c #EB9925",
"^. c #EE9B2C",
"/. c #DCAA3D",
"(. c #EFA725",
"). c #F2A621",
"_. c #F3A922",
"`. c #F5A927",
"'. c #BF9E62",
"]. c #99AA78",
"[. c #B4B77A",
"{. c #919662",
"}. c #F5B442",
"|. c #F9B541",
" X c #EDAA45",
".X c #DB9348",
"XX c #FFC144",
"oX c #17698B",
"OX c #286B89",
"+X c #2C7490",
"@X c #457A90",
"#X c #1B8EBA",
"$X c #2695BB",
"%X c #2F8BB0",
"&X c #528B94",
"*X c #69A8A5",
"=X c #73B2B8",
"-X c #75A499",
";X c #34A6C9",
":X c #34ACD3",
">X c #49A9C8",
",X c #52ADC7",
"<X c #4CB3CE",
"1X c #5AB8C9",
"2X c #51B9D7",
"3X c #78AEC4",
"4X c #65BCCD",
"5X c #74BDC9",
"6X c #78C3CD",
"7X c #7CCAD6",
"8X c #6FC3CF",
"9X c #95ADB1",
"0X c #D7898A",
"qX c #DCBF97",
"wX c #E0A1A2",
"eX c #8DC1AF",
"rX c #E1C69B",
"tX c #E6C99B",
"yX c #F6D296",
"uX c #F6D7A2",
"iX c #E0CBA0",
"pX c #81C7CF",
"aX c #98CDD8",
"sX c #9AD0D9",
"dX c #85C5D2",
"fX c #A4D3DC",
"gX c #AAD6DE",
"hX c #ACD5DC",
"jX c #BBDAE2",
"kX c #A2DFE7",
"lX c #C2DAE4",
"zX c #CBDDE5",
"xX c #C7E1E7",
"cX c #D0E0E8",
/* pixels */
"                                                                                                                                ",
"                                                                                                                                ",
"                                                        * * % % * * * * * * * * @                                               ",
"                                                    + 3 S <.<.<.<.<.<.<.<.<.<.4.I o @                                           ",
"                                                  6 J :.6.5.7.5.5.7.7.5.9.w.X.{ D g a +                                         ",
"                                                2 V +.5.5.5.6.5.5.5.5.5. .X.C B B ] V 7 O                                       ",
"                                              2 D e.Z.V.5.5.5.5.5.6.X.X.B B Z C C V V C 6 &                                     ",
"                                            X V #.A.wXD.6.5.5.5.5. .B B C C C V C B C V { 1                                     ",
"                                            * R ,.Z.0XA.q.5.5.5.} C [ [ [ Z V V C C C V C 8 O                                   ",
"                                            : qX2.X.q.C.D.6.5.} N y.(.~.g.[ V C C B C B C C 7 o                                 ",
"                                            : tX X*.} r.e.5.} v y.).R.).I.g...N C V C C B ] 7 o                                 ",
"                                            : tXXXp.B  .} ..v i.~._.R.).R.I.g.o.B C V C V C 7 o                                 ",
"                                            : rX}.k.%.n N N i.~._.R.R.).R._.U.g.#.Z C C V ' 5 o                                 ",
"                                            : rX}.W.k.$.$.y.)._.)._._.).R.R.`.U.u.N C V V ' 7 o                                 ",
"                                            : rX}.T.(.`._.`.R.R.).).).).R.).).L.u.N C ' V C 7 o                                 ",
"                                            : iX}.R._._.R.R._.R.R.R.R.).).).z.l.u.N { ,.d B 7 o                                 ",
"                                            ; rX}.T.(.(.R._.R.R.R.R.R.R.).`.c.=.C { ,.h i f < o                                 ",
"                                            ; tXXXR.R.R._.R.R.R._._._.Y.x.x.x.*.' -.n i u i u 2 +                               ",
"                                            : &X/.Y.R._._._.R.E.E.Y.Q.G.!.K.x.=.} 1.i M -.h i 4 +                               ",
"                                            - *XF.]..XK.J.J.J.{.].[.9X{.`._.c.&.{ ;.d M X. .n 4 O                               ",
"                                            9 uX-X=X'.v.z.z.z.G.*XeX[.E.).).L.&.{ 1.s s c  .H < +                               ",
"      9 %                                   : iX`.T._._.R._._.).T.E.R.T.).I.x.&.{ ;.i i i i i 2 o                               ",
"    * :.{ 8 . >                             : iX}.R.).R.R.).R.R.R.R.R.R.).z.t.X.V V i i i d 3 +                                 ",
"  > 5 <.} | 1.T -                     . o . : iX}.T.)._.)._.R.)._.R._.T.l.0. .D V V b i i , *                                   ",
"& 4 d <.{ X.t.R O               . . z H F u p !.^.`.U.x.c.c._.).R.R._.).j.9.{ Z C V C b N 1                                     ",
"2 H d ,.{  .w.R O           ! @ l z B.Z.3.o.M K Q.U.c.J.K.K.c.)._._.T.z.u.X.C V C V V C p 2 &   o                               ",
"0 4.i 6.{ X.w.R O           X 4 5.C.0XA.5.6.V 2 W k.U._.I.`.P.P.I.U.L.j.5.C C C C C V p $ i s 8 6 6                             ",
"0 5.J E -.o.7.R X w r t r r Y E  .A.0XC.3.X.V ' , W Q.s.i.H.H.i.i.y.i.y.:.h h h h n a $ h S ' C C V 1                           ",
"0 q.2.%XN.-.;.R 1 Q.yXuXuXuXuXtXA -.5.5.X.B V V ' 7 . O X X X X O O O O X X X X X X $ j 4.r.X.B V V V 1                         ",
"0 2.=XfX>X_ 8.5.1.q i.^.`.(.(.(.^.A -.#.V C C V C f u u u i u u u u u u u u u i u i i D 0XV.3.X.V C C J q                       ",
"0 B.5XjX>X` w.5.4.:.0 $.m.c.c.x.c.h.H n C C V C f c V m M d m V m N P +XOXOXP N m m V 6.V.4.5.,.V V f 2                         ",
"2 1.=XjX>X_ +.X.9.5.R k :.b.n.t.l.x.h.S d c c c M m C C V M f V ] Y @X<X<X<X@XY C V c  .5.7.<.{ V c i X o                       ",
"% 0 6XkX:X` Z m ;.q.3.q q l I 7.b.b.j.9.n u < < f C V V V C c h v ! ;XpXsX6X:X~ v f c V H | m c f < d 5 7 1                     ",
"  e G.@XoXy 4 p B #.' 3 o . q U I I I R F < + o 3 d V C C V C n i Q ;X6XfX6X:X~ d n C V i u A A 3 k { } ] s 1                   ",
"    . . . X + % u h n 3       o . o . o + +     + < f V V B V C c Y %X4X1X8X%X^ c C V V d h y.d.0 9.r.e. .] h >                 ",
"                O O O                             o , c V C V C V N ! %X#X%XY Z V C V V i u.L 0 7.q.0Xe.5.X.C h @               ",
"                                                  o , i f C C C C C D F a F C C V C Z i d 1 7 } q.6.{ 6.6.5.+.n #               ",
"                                                  . k | u f f 2 = & & , d d f f f f d u $ X % p D } X.6.A.Z.X.n @               ",
"                                                  $ g  .H i , 2 a l l z , n d i u i M n % +   O < b q.5.B.B.+.M O               ",
"                                                + 4 i h H < < S 3.r.5.@.0 a d d c n m a %       O 7 | 6.} +.>.7 *               ",
"                                                o 4 d d u 3 :.4.5.5.G h 5.* < f N f 4 o           O 5 j U 1.l o                 ",
"                                                + < d j m G S.V.6.X.c h <.= x A A a #               O # o + O                   ",
"                                                o 8 d 4 , D 4.q.o.C n h <.* s.`.!.y.+                                           ",
"                                                  $ = $ K !.4.4.5.H u n 4.= l %.O.A #                                           ",
"                                                  + X u H *.g.0.5.<.@.| 0 g M B Z h O                                           ",
"                                                  , u V V B =.b.0.6.w.1.+ V ] C n 6                                             ",
"                                                o < M C V V B =.n.t.9.l , m M m p o                                             ",
"                                                - < c V V V C v &.l.$.# A [ S j 3 O                                             ",
"                                              xXt < i f V C V V C M < w ^.k.m.L .                                               ",
"                                              xX^ < d i f C V V C s & g ..[ O.x o                                               ",
"                                            jXpX=X^ < d s f V C a 3 u d d f < &                                                 ",
"                                            jX7X<X( , j i i f c 3 $ d i i , *                                                   ",
"                                          jXsX,X#XoXe 5 d d i 8 , 5 i u 3 O                                                     ",
"                                        jXsX>X#X$X:X+Xy 4 5 5 $ 4 d u 8 +                                                       ",
"                                      cXfX,X$X#X4X6X7X&X@ # X 5 i i 8 +                                                         ",
"                                        dX$X8X5X5X      9X@ p i d 8 O                                                           ",
"                                      fX5X4X6X          fXoX% 5 f < +                                                           ",
"                                    sX7X5X            zXfX#X&Xy $ &                                                             ",
"                                lXlXfX                fX,X,X7X)                                                                 ",
"                                lXjX                zXaX;X7X5X                                                                  ",
"                              lX                  lXjXaX3X                                                                      ",
"                                                  zXsX3X                                                                        ",
"                                                lX                                                                              ",
"                                                                                                                                "
};
